# xmcd CD database file
#
# Track frame offsets:
#	150
#	27482
#	54752
#	74910
#	101555
#	128332
#	159085
#	178647
#	204072
#	233772
#
# Disc length: 3457 seconds
#
# Revision: 0
# Processed by: cddbd v1.5.2PL0 Copyright (c) Steve Scherf et al.
# Submitted via: CDex 1.51
#
DISCID=760d7f0a
DTITLE=Tron Syversen - Sacred Dreams
DYEAR=2014
DGENRE=New Age
TTITLE0=Lullaby for you
TTITLE1=Dreamland
TTITLE2=Cradle Song
TTITLE3=In a silent place
TTITLE4=Moonlight Reflection
TTITLE5=A quiet Evening
TTITLE6=At the end of the day
TTITLE7=Twilight Lullaby
TTITLE8=All through the night
TTITLE9=Tender Moments
EXTD=YEAR: 2014
EXTT0=
EXTT1=
EXTT2=
EXTT3=
EXTT4=
EXTT5=
EXTT6=
EXTT7=
EXTT8=
EXTT9=
PLAYORDER=
